<svg width="743" height="700" viewBox="0 0 743 700" fill="none" xmlns="http://www.w3.org/2000/svg">
<path d="M392.938 699.414C398.141 699.422 403.294 698.401 408.102 696.411C412.91 694.421 417.277 691.501 420.952 687.818L730.755 378.015C734.435 374.336 737.354 369.969 739.346 365.162C741.338 360.355 742.363 355.203 742.363 350C742.363 344.797 741.338 339.645 739.346 334.838C737.354 330.031 734.435 325.663 730.755 321.985L420.952 12.1821C417.277 8.49888 412.91 5.57836 408.102 3.58832C403.294 1.59828 398.141 0.577953 392.938 0.585985V699.414Z" fill="white"/>
<path opacity="0.5" d="M349.438 569.045C339.302 569.045 329.166 566.651 321.435 561.769L11.5961 367.556C-3.86535 357.862 -3.86535 342.138 11.5961 332.444L321.411 138.231C329.142 133.384 339.278 130.955 349.414 130.955L349.438 569.045Z" fill="white"/>
<path opacity="0.5" d="M349.438 438.078C339.302 438.078 329.166 435.684 321.435 430.814L11.5961 236.6C-3.86535 226.907 -3.86535 211.182 11.5961 201.477L321.411 7.27596C329.094 2.39341 339.278 0 349.438 0V438.078Z" fill="white"/>
<path opacity="0.5" d="M349.438 699.999C339.302 699.999 329.166 697.606 321.435 692.723L11.5961 498.522C-3.86535 488.817 -3.86535 473.092 11.5961 463.399L321.411 269.186C329.142 264.339 339.278 261.922 349.414 261.922L349.438 699.999Z" fill="white"/>
</svg>
